<?xml version="1.0" encoding="UTF-8"?>
<!DOCTYPE svg PUBLIC "-//W3C//DTD SVG 1.1//EN" "http://www.w3.org/Graphics/SVG/1.1/DTD/svg11.dtd">
<svg xmlns="http://www.w3.org/2000/svg" version="1.1" width="96px" height="86px" style="shape-rendering:geometricPrecision; text-rendering:geometricPrecision; image-rendering:optimizeQuality; fill-rule:evenodd; clip-rule:evenodd" xmlns:xlink="http://www.w3.org/1999/xlink">
<g><path style="opacity:0.998" fill="#ed6c17" d="M 6.5,-0.5 C 30.8333,-0.5 55.1667,-0.5 79.5,-0.5C 82.6228,1.72091 84.7895,4.72091 86,8.5C 86.4992,13.1548 86.6658,17.8215 86.5,22.5C 85.6618,22.8417 85.3284,23.5084 85.5,24.5C 84.1667,24.8333 84.1667,25.1667 85.5,25.5C 84.8166,27.1765 83.4832,27.8432 81.5,27.5C 73.1667,26.1667 64.8333,26.1667 56.5,27.5C 55.71,28.6085 55.21,29.9419 55,31.5C 53.0417,30.048 51.0417,29.7146 49,30.5C 49.0704,27.008 48.2371,24.008 46.5,21.5C 47.023,19.2921 48.3563,17.7921 50.5,17C 86.5,16.3333 86.5,15.6667 50.5,15C 58.4931,14.5003 66.4931,14.3336 74.5,14.5C 74.5958,10.6893 75.2624,10.6893 76.5,14.5C 76.8333,14 77.1667,13.5 77.5,13C 76.8524,11.5603 76.5191,10.0603 76.5,8.5C 53.8333,8.5 31.1667,8.5 8.5,8.5C 8.5,12.8333 8.5,17.1667 8.5,21.5C 7.75861,26.3752 6.92527,31.3752 6,36.5C 5.63647,32.5543 3.4698,30.221 -0.5,29.5C -0.5,21.5 -0.5,13.5 -0.5,5.5C 1.85847,3.47073 4.1918,1.47073 6.5,-0.5 Z M 14.5,17.5 C 14.1667,18.5 13.5,19.1667 12.5,19.5C 12.5,18.1667 13.1667,17.5 14.5,17.5 Z"/></g>
<g><path style="opacity:0.008" fill="#ff7b00" d="M 87.5,22.5 C 87.3342,17.8215 87.5008,13.1548 88,8.5C 88.8151,13.3522 88.6484,18.0189 87.5,22.5 Z"/></g>
<g><path style="opacity:0.004" fill="#fe1100" d="M 9.5,9.5 C 31.5025,9.33337 53.5025,9.50004 75.5,10C 53.8359,10.5 32.1692,10.6666 10.5,10.5C 10.6719,31.7823 10.6719,53.1156 10.5,74.5C 32.1692,74.3334 53.8359,74.5 75.5,75C 53.5025,75.5 31.5025,75.6666 9.5,75.5C 9.5,53.5 9.5,31.5 9.5,9.5 Z"/></g>
<g><path style="opacity:0.004" fill="#ff1500" d="M 16.5,16.5 C 14.6214,16.6068 14.2881,16.1068 15.5,15C 21.8333,14.3333 28.1667,14.3333 34.5,15C 28.3193,15.1724 22.3193,15.6724 16.5,16.5 Z"/></g>
<g><path style="opacity:0.934" fill="#ec6410" d="M 16.5,16.5 C 22.5092,16.3338 28.5092,16.5005 34.5,17C 35.9308,17.4652 37.0975,18.2986 38,19.5C 38.4998,29.1609 38.6665,38.8276 38.5,48.5C 37.2616,46.7857 36.595,44.7857 36.5,42.5C 35.0695,42.5792 33.7362,42.2458 32.5,41.5C 30.8245,48.5719 29.4911,55.5719 28.5,62.5C 28.5,51.1667 28.5,39.8333 28.5,28.5C 28.5,28.1667 28.5,27.8333 28.5,27.5C 24.929,26.6394 20.5956,26.1394 15.5,26C 13.085,24.5347 12.085,22.368 12.5,19.5C 13.5,19.1667 14.1667,18.5 14.5,17.5C 15.4916,17.6716 16.1583,17.3382 16.5,16.5 Z"/></g>
<g><path style="opacity:0.012" fill="#ff4200" d="M 46.5,60.5 C 46.5,60.8333 46.5,61.1667 46.5,61.5C 44.1667,61.5 41.8333,61.5 39.5,61.5C 39.3334,47.496 39.5001,33.496 40,19.5C 40.4999,33.1626 40.6666,46.8293 40.5,60.5C 41.8333,60.5 43.1667,60.5 44.5,60.5C 44.3334,47.1625 44.5001,33.8292 45,20.5C 45.169,34.0063 45.669,47.3396 46.5,60.5 Z"/></g>
<g><path style="opacity:0.012" fill="#ff6400" d="M 86.5,22.5 C 86.8333,22.5 87.1667,22.5 87.5,22.5C 87.6716,23.4916 87.3382,24.1583 86.5,24.5C 86.5,23.8333 86.5,23.1667 86.5,22.5 Z"/></g>
<g><path style="opacity:0.012" fill="#fe5500" d="M 85.5,24.5 C 85.8333,24.5 86.1667,24.5 86.5,24.5C 86.3147,25.1701 85.9813,25.1701 85.5,24.5 Z"/></g>
<g><path style="opacity:0.004" fill="#fe0000" d="M 90.5,26.5 C 90.8966,25.475 91.5632,25.3083 92.5,26C 91.9056,26.4643 91.2389,26.631 90.5,26.5 Z"/></g>
<g><path style="opacity:0.012" fill="#ce6700" d="M 72.5,28.5 C 75.2869,27.5233 78.2869,27.19 81.5,27.5C 81.5,27.8333 81.5,28.1667 81.5,28.5C 80.8333,28.5 80.5,28.8333 80.5,29.5C 80.1667,29.5 79.8333,29.5 79.5,29.5C 77.8333,28.1667 76.1667,28.1667 74.5,29.5C 74.1667,29.5 73.8333,29.5 73.5,29.5C 73.5,28.8333 73.1667,28.5 72.5,28.5 Z"/></g>
<g><path style="opacity:0.735" fill="#ec6c17" d="M 95.5,30.5 C 95.5,31.1667 95.5,31.8333 95.5,32.5C 94.5,32.5 93.5,32.5 92.5,32.5C 92.5,33.8333 92.5,35.1667 92.5,36.5C 90.8235,35.8166 90.1568,34.4832 90.5,32.5C 86.5,31.8333 86.5,31.1667 90.5,30.5C 91.1667,26.5 91.8333,26.5 92.5,30.5C 93.5,30.5 94.5,30.5 95.5,30.5 Z"/></g>
<g><path style="opacity:0.004" fill="#f12b00" d="M 28.5,27.5 C 28.5,27.8333 28.5,28.1667 28.5,28.5C 27.669,41.3269 27.169,54.3269 27,67.5C 26.5001,54.5043 26.3334,41.5043 26.5,28.5C 22.8183,28.6653 19.1516,28.4986 15.5,28C 19.8206,27.501 24.1539,27.3343 28.5,27.5 Z"/></g>
<g><path style="opacity:0.008" fill="#f87900" d="M 67.5,28.5 C 66.6618,28.8417 66.3284,29.5084 66.5,30.5C 64.1998,28.7982 61.5331,28.1315 58.5,28.5C 58.2539,34.5594 58.5872,40.5594 59.5,46.5C 58.1667,47.8333 58.1667,49.1667 59.5,50.5C 58.7092,56.4193 58.2092,62.4193 58,68.5C 57.5001,54.8374 57.3334,41.1707 57.5,27.5C 61.0419,27.1872 64.3752,27.5206 67.5,28.5 Z"/></g>
<g><path style="opacity:0.031" fill="#d96511" d="M 86.5,29.5 C 87.172,28.7326 88.0053,28.0659 89,27.5C 89.1881,29.0613 88.3547,29.728 86.5,29.5 Z"/></g>
<g><path style="opacity:0.027" fill="#ed6c16" d="M 95.5,28.5 C 95.5,28.8333 95.5,29.1667 95.5,29.5C 94.6236,29.6309 93.9569,29.2975 93.5,28.5C 93.9698,27.537 94.6365,27.537 95.5,28.5 Z"/></g>
<g><path style="opacity:0.012" fill="#ff5500" d="M 95.5,33.5 C 95.5,33.8333 95.5,34.1667 95.5,34.5C 94.8333,35.1667 94.1667,35.8333 93.5,36.5C 93.2852,34.8212 93.9519,33.8212 95.5,33.5 Z"/></g>
<g><path style="opacity:0.012" fill="#f25301" d="M 87.5,50.5 C 87.1712,44.7945 87.5046,39.1278 88.5,33.5C 88.8333,34 89.1667,34.5 89.5,35C 88.9021,40.3128 88.2354,45.4794 87.5,50.5 Z"/></g>
<g><path style="opacity:0.004" fill="#fe0000" d="M 92.5,36.5 C 92.8333,36.5 93.1667,36.5 93.5,36.5C 93.3147,37.1701 92.9813,37.1701 92.5,36.5 Z"/></g>
<g><path style="opacity:0.004" fill="#fe0000" d="M 92.5,37.5 C 92.1034,38.525 91.4368,38.6917 90.5,38C 91.0944,37.5357 91.7611,37.369 92.5,37.5 Z"/></g>
<g><path style="opacity:0.617" fill="#f06511" d="M 72.5,28.5 C 73.1667,28.5 73.5,28.8333 73.5,29.5C 73.4021,31.5529 74.0687,33.2196 75.5,34.5C 75.7959,36.403 76.4625,38.0697 77.5,39.5C 77.3284,40.4916 77.6618,41.1583 78.5,41.5C 78.8923,43.1789 79.3923,44.8455 80,46.5C 80.4994,40.8431 80.6661,35.1764 80.5,29.5C 81.1667,29.5 81.5,29.1667 81.5,28.5C 83.2915,28.366 84.9582,28.6993 86.5,29.5C 86.5,36.5 86.5,43.5 86.5,50.5C 82.7061,51.2393 82.5395,52.5727 86,54.5C 86.4966,56.8098 86.6633,59.1432 86.5,61.5C 84.6406,60.4058 82.6406,59.5725 80.5,59C 79.8906,57.0517 79.224,55.2184 78.5,53.5C 78.6107,52.8826 78.944,52.3826 79.5,52C 77.0935,51.7428 75.4268,50.5762 74.5,48.5C 73.6661,47.2521 72.3328,46.5854 70.5,46.5C 68.9549,46.5108 67.6216,46.8442 66.5,47.5C 65.1129,50.9157 62.7796,51.9157 59.5,50.5C 59.5,49.1667 59.5,47.8333 59.5,46.5C 62.3446,41.4693 64.6779,36.1359 66.5,30.5C 67.3382,30.1583 67.6716,29.4916 67.5,28.5C 69.2341,27.438 70.9008,27.438 72.5,28.5 Z M 69.5,40.5 C 69.3505,39.448 69.5172,38.448 70,37.5C 70.7065,39.0806 71.5399,40.5806 72.5,42C 71.0563,42.7805 69.723,42.6139 68.5,41.5C 68.6236,40.8933 68.9569,40.56 69.5,40.5 Z M 79.5,29.5 C 79.8333,29.5 80.1667,29.5 80.5,29.5C 80.6661,35.1764 80.4994,40.8431 80,46.5C 79.3923,44.8455 78.8923,43.1789 78.5,41.5C 79.4834,37.7016 79.8168,33.7016 79.5,29.5 Z M 79.5,29.5 C 78.8333,31.8333 78.1667,34.1667 77.5,36.5C 77.2914,35.0783 76.7914,33.745 76,32.5C 75.5357,33.0944 75.369,33.7611 75.5,34.5C 74.0687,33.2196 73.4021,31.5529 73.5,29.5C 73.8333,29.5 74.1667,29.5 74.5,29.5C 76.1667,28.1667 77.8333,28.1667 79.5,29.5 Z M 66.5,47.5 C 67.6216,46.8442 68.9549,46.5108 70.5,46.5C 72.3328,46.5854 73.6661,47.2521 74.5,48.5C 74.1667,48.5 73.8333,48.5 73.5,48.5C 71.3926,47.5318 69.0593,47.1984 66.5,47.5 Z"/></g>
<g><path style="opacity:0.015" fill="#fb7005" d="M 79.5,29.5 C 79.8168,33.7016 79.4834,37.7016 78.5,41.5C 78.6716,40.5084 78.3382,39.8417 77.5,39.5C 77.5,38.5 77.5,37.5 77.5,36.5C 78.1667,34.1667 78.8333,31.8333 79.5,29.5 Z"/></g>
<g><path style="opacity:0.016" fill="#fb780a" d="M 66.5,47.5 C 69.0593,47.1984 71.3926,47.5318 73.5,48.5C 71.2075,48.2436 69.0408,48.5769 67,49.5C 66.5357,48.9056 66.369,48.2389 66.5,47.5 Z"/></g>
<g><path style="opacity:0.008" fill="#fe8000" d="M 86.5,50.5 C 86.8333,50.5 87.1667,50.5 87.5,50.5C 87.3147,51.1701 86.9813,51.1701 86.5,50.5 Z"/></g>
<g><path style="opacity:0.997" fill="#ee5911" d="M 46.5,21.5 C 48.2371,24.008 49.0704,27.008 49,30.5C 51.0417,29.7146 53.0417,30.048 55,31.5C 55.21,29.9419 55.71,28.6085 56.5,27.5C 56.8159,41.549 56.4825,55.549 55.5,69.5C 54.9747,70.1924 54.3081,70.6924 53.5,71C 46.1667,71.6667 38.8333,71.6667 31.5,71C 29.0695,68.6954 28.0695,65.8621 28.5,62.5C 29.4911,55.5719 30.8245,48.5719 32.5,41.5C 33.7362,42.2458 35.0695,42.5792 36.5,42.5C 36.595,44.7857 37.2616,46.7857 38.5,48.5C 38.5,53.1667 38.5,57.8333 38.5,62.5C 41.9725,62.8404 44.6391,62.507 46.5,61.5C 46.5,61.1667 46.5,60.8333 46.5,60.5C 46.5,47.5 46.5,34.5 46.5,21.5 Z"/></g>
<g><path style="opacity:0.008" fill="#ff7900" d="M 87.5,76.5 C 87.3337,69.1591 87.5003,61.8258 88,54.5C 88.8218,62.0118 88.6552,69.3451 87.5,76.5 Z"/></g>
<g><path style="opacity:0.982" fill="#ea5012" d="M 8.5,21.5 C 8.5,39.8333 8.5,58.1667 8.5,76.5C 30.1667,76.5 51.8333,76.5 73.5,76.5C 73.9175,77.2216 74.5842,77.7216 75.5,78C 53.8333,78.3333 32.1667,78.6667 10.5,79C 27.5,79.3333 44.5,79.6667 61.5,80C 67.3732,81.5699 73.0399,83.4032 78.5,85.5C 54.5,85.5 30.5,85.5 6.5,85.5C 4.1918,83.5293 1.85847,81.5293 -0.5,79.5C -0.5,62.8333 -0.5,46.1667 -0.5,29.5C 3.4698,30.221 5.63647,32.5543 6,36.5C 6.92527,31.3752 7.75861,26.3752 8.5,21.5 Z"/></g>
<g><path style="opacity:0.997" fill="#ef5511" d="M 78.5,53.5 C 79.224,55.2184 79.8906,57.0517 80.5,59C 82.6406,59.5725 84.6406,60.4058 86.5,61.5C 86.5,66.5 86.5,71.5 86.5,76.5C 85.596,77.209 85.2627,78.209 85.5,79.5C 84.8333,79.5 84.5,79.8333 84.5,80.5C 83.6618,80.8417 83.3284,81.5084 83.5,82.5C 82.8333,82.5 82.5,82.8333 82.5,83.5C 81.5084,83.3284 80.8417,83.6618 80.5,84.5C 79.8333,84.5 79.5,84.8333 79.5,85.5C 79.1667,85.5 78.8333,85.5 78.5,85.5C 73.0399,83.4032 67.3732,81.5699 61.5,80C 44.5,79.6667 27.5,79.3333 10.5,79C 32.1667,78.6667 53.8333,78.3333 75.5,78C 74.5842,77.7216 73.9175,77.2216 73.5,76.5C 74.5,76.5 75.5,76.5 76.5,76.5C 77.0689,68.6879 77.7356,61.0212 78.5,53.5 Z"/></g>
<g><path style="opacity:0.016" fill="#ff3d00" d="M 86.5,76.5 C 86.8333,76.5 87.1667,76.5 87.5,76.5C 87.7373,77.791 87.404,78.791 86.5,79.5C 86.5,78.5 86.5,77.5 86.5,76.5 Z"/></g>
<g><path style="opacity:0.016" fill="#fe4000" d="M 85.5,79.5 C 85.8333,79.5 86.1667,79.5 86.5,79.5C 86.3147,80.1701 85.9813,80.1701 85.5,79.5 Z"/></g>
<g><path style="opacity:0.008" fill="#fe8000" d="M 84.5,80.5 C 84.8333,80.5 85.1667,80.5 85.5,80.5C 85.6716,81.4916 85.3382,82.1583 84.5,82.5C 84.5,81.8333 84.5,81.1667 84.5,80.5 Z"/></g>
<g><path style="opacity:0.012" fill="#fe5500" d="M 83.5,82.5 C 83.8333,82.5 84.1667,82.5 84.5,82.5C 84.3147,83.1701 83.9813,83.1701 83.5,82.5 Z"/></g>
<g><path style="opacity:0.012" fill="#fe5500" d="M 82.5,83.5 C 82.8333,83.5 83.1667,83.5 83.5,83.5C 83.3147,84.1701 82.9813,84.1701 82.5,83.5 Z"/></g>
<g><path style="opacity:0.008" fill="#fe8000" d="M 80.5,85.5 C 80.5,85.1667 80.5,84.8333 80.5,84.5C 81.1667,84.5 81.8333,84.5 82.5,84.5C 82.5,84.8333 82.5,85.1667 82.5,85.5C 81.8333,85.5 81.1667,85.5 80.5,85.5 Z"/></g>
</svg>
